<?xml version="1.0" encoding="utf-8"?>
<!-- Generator: Adobe Illustrator 24.1.2, SVG Export Plug-In . SVG Version: 6.00 Build 0)  -->
<svg version="1.1" id="Слой_1" xmlns="http://www.w3.org/2000/svg" xmlns:xlink="http://www.w3.org/1999/xlink" x="0px" y="0px"
	 viewBox="0 0 2194 612" style="enable-background:new 0 0 2194 612;" xml:space="preserve">
<style type="text/css">
	.st0{fill:#FECC18;}
	.st1{fill:#6BC4C9;}
	.st2{fill:#117481;}
	.st3{fill:#0B7581;}
	.st4{fill:#007480;}
</style>
<g>
	<path class="st0" d="M316.7,210.79c-0.87,0.69-1.54,1.25-2.23,1.77c-6.92,5.27-13.5,10.88-18.73,17.93
		c-11.32,15.25-16.51,32.37-15.18,51.29c2.29,32.38,24.14,59.33,55.48,67.94c24.16,6.64,46.55,2.2,66.64-12.8
		c3.08-2.3,5.34-5.69,7.98-8.57c0.22-0.24,0.4-0.5,0.84-1.06c-0.11,0.7-0.14,1.05-0.22,1.38c-5.11,19.57-15.65,35.53-31.55,48.03
		c-7.12,5.6-14.69,10.4-23.04,13.93c-15.11,6.38-30.86,8.71-47.13,6.79c-22.09-2.62-41.01-11.9-56.52-27.87
		c-13.46-13.86-21.96-30.39-25-49.46c-4.43-27.78,2.25-52.84,19.89-74.77c8.56-10.65,19.11-19.06,31.26-25.33
		c11.33-5.84,23.44-8.82,36.18-9.24C315.71,210.74,316.07,210.77,316.7,210.79z"/>
</g>
<g>
	<path d="M612.6,298.01l-63.1-59.91l22.97-83.93l-87.28-23.89l-22.3-87.69l-94.11,23.93L298.36-0.35l-59.91,63.1l-83.93-22.97
		l-23.88,87.28l-87.7,22.3l23.93,94.11L0,313.9l63.1,59.91l-22.97,83.93l87.28,23.88l22.3,87.7l94.11-23.93l70.42,66.86l59.91-63.1
		l83.93,22.97l23.88-87.28l87.7-22.3l-23.93-94.11L612.6,298.01z M456.16,458.56l-20.38,74.45l-71.6-19.59l-51.11,53.83L253,510.21
		l-80.28,20.41l-19.02-74.81l-74.45-20.37l19.59-71.6L45,312.73l57.04-60.08l-20.41-80.28l74.81-19.02l20.38-74.45l71.6,19.59
		l51.11-53.83l60.08,57.04l80.28-20.41l19.02,74.81l74.45,20.38l-19.59,71.6l53.83,51.11l-57.04,60.08l20.41,80.28L456.16,458.56z"
		/>
</g>
<g>
	<g>
		<path class="st1" d="M539.12,238.63l-60.27-33.23l0.8-68.82l-71.57-0.83l-34.6-62.65l-67.24,37.13l-67.26-37.08l-33.23,60.27
			l-68.82-0.8l-0.83,71.57l-62.65,34.6l37.13,67.24l-37.09,67.26l60.27,33.23l-0.8,68.82l71.57,0.83l34.6,62.66l67.24-37.13
			l67.26,37.09l33.23-60.27l68.82,0.8l0.83-71.57l62.66-34.6l-37.13-67.24L539.12,238.63z M451.5,392.78l-0.71,61.05l-58.71-0.68
			l-28.35,51.42l-57.38-31.64L249,504.6l-29.52-53.45l-61.05-0.7l0.68-58.71l-51.41-28.35l31.64-57.38l-31.67-57.36l53.45-29.52
			l0.71-61.05l58.71,0.68l28.35-51.41l57.38,31.64l57.36-31.67l29.52,53.45l61.05,0.71l-0.68,58.71l51.41,28.35l-31.64,57.38
			l31.67,57.36L451.5,392.78z"/>
	</g>
</g>
<g>
	<g>
		<path class="st2" d="M612.6,298.01l-63.1-59.91l22.97-83.93l-87.28-23.89l-22.3-87.69l-94.11,23.93L298.36-0.35l-59.91,63.1
			l-83.93-22.97l-23.88,87.28l-87.7,22.3l23.93,94.11L0,313.9l63.1,59.91l-22.97,83.93l87.28,23.88l22.3,87.7l94.11-23.93
			l70.42,66.86l59.91-63.1l83.93,22.97l23.88-87.28l87.7-22.3l-23.93-94.11L612.6,298.01z M456.16,458.56l-20.38,74.45l-71.6-19.59
			l-51.11,53.83L253,510.21l-80.28,20.41l-19.02-74.81l-74.45-20.37l19.59-71.6L45,312.73l57.04-60.08l-20.41-80.28l74.81-19.02
			l20.38-74.45l71.6,19.59l51.11-53.83l60.08,57.04l80.28-20.41l19.02,74.81l74.45,20.38l-19.59,71.6l53.83,51.11l-57.04,60.08
			l20.41,80.28L456.16,458.56z"/>
	</g>
</g>
<g>
	<path class="st3" d="M686.26,305.16V139.11c0-3.03,1.44-4.55,4.31-4.55h12.6c1.17,0,2.17,0.47,3.03,1.4
		c0.86,0.93,1.28,1.98,1.28,3.15v139.69c0,0.47,0.07,0.7,0.23,0.7l73.81-140.16c1.01-1.87,2.1-3.13,3.26-3.79
		c1.17-0.66,3.34-0.99,6.53-0.99h13.17c1.87,0,3.48,0.66,4.84,1.98c1.36,1.32,2.04,2.92,2.04,4.78v167.8c0,1.95-1.44,2.92-4.31,2.92
		h-12.36c-1.24,0-2.28-0.44-3.09-1.34c-0.82-0.89-1.23-1.96-1.23-3.21V168.03c0-0.47-0.08-0.7-0.23-0.7c-0.23,0-0.51,0.23-0.82,0.7
		l-73.7,140.16c-1.4,2.57-3.96,3.85-7.7,3.85h-14.81c-1.87,0-3.48-0.68-4.84-2.04C686.94,308.64,686.26,307.03,686.26,305.16z"/>
	<path class="st3" d="M922.74,305.86c0,2.65-0.86,4.24-2.56,4.78c-1.71,0.54-5.91,1.18-12.6,1.92c-6.69,0.74-13.17,1.11-19.47,1.11
		c-15.86,0-28.32-5.17-37.37-15.51c-9.06-10.34-13.58-24.49-13.58-42.44v-18.66c0-18.04,4.51-32.22,13.53-42.56
		c9.01-10.34,21.49-15.51,37.43-15.51c7.85,0,15.12,0.47,21.81,1.4c6.69,0.93,10.49,1.77,11.43,2.51c0.93,0.74,1.4,2.08,1.4,4.02
		v8.63c0,2.33-1.67,3.5-5.01,3.5c-9.87-1.09-19.75-1.64-29.62-1.64c-19.9,0-29.85,13.22-29.85,39.65v18.66
		c0,26.43,9.95,39.65,29.85,39.65c8.63,0,15.69-0.29,21.16-0.87c5.48-0.58,8.49-0.87,9.04-0.87c2.96,0,4.43,1.21,4.43,3.62V305.86z"
		/>
	<path class="st3" d="M1026.41,308.43L997.5,202.2c-0.78-2.88-2.29-4.31-4.55-4.31c-2.41,0-4,1.44-4.78,4.31l-28.92,106.23
		c-0.54,2.41-1.98,3.61-4.31,3.61h-14.11c-2.64,0-3.96-1.28-3.96-3.85c0-0.54,0.08-1.09,0.23-1.63l31.48-109.38
		c3.57-12.13,11.7-18.19,24.37-18.19s20.72,5.99,24.14,17.96l31.25,109.61c0.16,0.31,0.23,0.86,0.23,1.63
		c0,2.57-1.36,3.85-4.08,3.85h-14.11C1028.36,312.04,1027.04,310.84,1026.41,308.43z"/>
	<path class="st3" d="M1159.93,307.26c0,1.32-0.49,2.45-1.46,3.38c-0.97,0.93-2.08,1.4-3.32,1.4h-11.08c-1.24,0-2.33-0.47-3.26-1.4
		c-0.93-0.94-1.4-2.06-1.4-3.38v-5.25c-13.3,7.77-25.58,11.66-36.85,11.66c-12.52,0-22.14-3.24-28.86-9.74
		c-6.72-6.49-10.08-16.11-10.08-28.86v-2.92c0-13.29,4.41-23.07,13.24-29.33c8.82-6.25,23.61-9.39,44.37-9.39h17.61v-9.56
		c0-9.87-1.89-16.83-5.66-20.87c-3.77-4.04-10.4-6.07-19.88-6.07c-9.02,0-16.6,0.23-22.74,0.7l-14.81,1.28
		c-2.96,0-4.43-1.32-4.43-3.96v-8.28c0-1.71,0.62-2.92,1.87-3.62c1.24-0.7,5.79-1.55,13.64-2.56c7.85-1.01,16.68-1.52,26.47-1.52
		c31.09,0,46.64,14.97,46.64,44.89V307.26z M1138.83,286.97v-38.48h-17.61c-13.29,0-22.7,1.58-28.22,4.73
		c-5.52,3.15-8.28,9.38-8.28,18.71v2.92c0,7.54,1.63,13.04,4.9,16.5c3.26,3.46,8.94,5.19,17.03,5.19
		C1116.52,296.53,1127.25,293.35,1138.83,286.97z"/>
	<path class="st3" d="M1313.51,307.26c0,1.32-0.49,2.45-1.46,3.38c-0.97,0.93-2.08,1.4-3.32,1.4h-11.08c-1.24,0-2.35-0.47-3.32-1.4
		c-0.97-0.94-1.45-2.06-1.45-3.38V206.74l-18.07,33.23c-6.53,11.82-10.15,18.21-10.85,19.18c-0.7,0.97-1.77,1.79-3.21,2.45
		s-3.29,0.99-5.54,0.99h-9.33c-1.79,0-3.3-0.19-4.55-0.58c-1.24-0.39-2.29-0.99-3.15-1.81c-0.86-0.81-2.61-3.56-5.25-8.22
		l-24.83-45.24v100.52c0,1.32-0.47,2.45-1.4,3.38c-0.93,0.93-2.06,1.4-3.38,1.4h-10.96c-1.32,0-2.45-0.47-3.38-1.4
		c-0.94-0.94-1.4-2.06-1.4-3.38V185.52c0-1.32,0.47-2.45,1.4-3.38c0.93-0.94,2.06-1.4,3.38-1.4h15.51c2.8,0,4.82,0.47,6.06,1.4
		c0.54,0.47,3.69,5.91,9.44,16.33l14.23,25.77c7.7,14.07,11.68,21.36,11.95,21.86c0.27,0.51,0.57,0.76,0.87,0.76s0.78-0.5,1.4-1.51
		l33.7-61.1c1.17-2.33,3.69-3.5,7.58-3.5h15.62c1.24,0,2.35,0.47,3.32,1.4c0.97,0.93,1.46,2.06,1.46,3.38V307.26z"/>
	<path class="st3" d="M796.91,348.9c35.54,0,53.32,19.26,53.32,57.77v16.9c0,18.65-4.32,32.84-12.96,42.58
		c-8.64,9.74-21.29,14.61-37.96,14.61c-5.1,0-13.13-0.61-24.09-1.83v41.56c0,1.22-0.42,2.26-1.26,3.14c-0.84,0.87-1.9,1.31-3.2,1.31
		h-11.87c-2.82,0-4.22-1.48-4.22-4.45v-41.56c-11.27,1.22-19.29,1.83-24.09,1.83c-16.67,0-29.34-4.87-38.02-14.61
		c-8.68-9.74-13.02-23.94-13.02-42.58v-16.9c0-38.51,17.77-57.77,53.32-57.77C740.63,348.9,789.15,348.9,796.91,348.9z
		 M754.67,367.39c-7.16-0.76-14.58-1.14-22.26-1.14c-11.04,0-19.16,3.14-24.37,9.42c-5.21,6.28-7.82,16.61-7.82,31v16.9
		c0,13.93,2.45,24.07,7.36,30.43c4.91,6.36,12.58,9.53,23.01,9.53c6.24,0,14.27-0.57,24.09-1.71V367.39z M775.22,461.81
		c9.59,1.14,17.62,1.71,24.09,1.71c10.43,0,18.1-3.18,23.01-9.53c4.91-6.36,7.36-16.5,7.36-30.43v-16.9c0-14.39-2.61-24.72-7.82-31
		c-5.21-6.28-13.34-9.42-24.37-9.42c-7.99,0-15.41,0.38-22.26,1.14V461.81z"/>
	<path class="st3" d="M976.27,474.48c0,1.3-0.42,2.4-1.26,3.31c-0.84,0.91-1.87,1.37-3.08,1.37h-11.76c-1.22,0-2.27-0.46-3.14-1.37
		c-0.88-0.91-1.31-2.01-1.31-3.31v-4.45c-12.41,7.15-24.77,10.73-37.1,10.73c-27.17,0-40.76-16.21-40.76-48.64v-76.84
		c0-1.29,0.46-2.4,1.37-3.31c0.91-0.91,2.02-1.37,3.31-1.37h11.3c1.22,0,2.28,0.46,3.2,1.37c0.91,0.91,1.37,2.02,1.37,3.31v76.84
		c0,11.04,1.88,18.95,5.65,23.75c3.77,4.79,10.48,7.19,20.15,7.19c8.83,0,19.33-3.04,31.51-9.13v-98.64c0-1.22,0.47-2.3,1.43-3.25
		c0.95-0.95,2.04-1.43,3.25-1.43h11.53c1.14,0,2.15,0.46,3.03,1.37c0.87,0.91,1.31,2.02,1.31,3.31V474.48z"/>
	<path class="st3" d="M1111.22,474.48c0,1.3-0.46,2.4-1.37,3.31c-0.91,0.91-2.02,1.37-3.31,1.37h-11.19c-1.3,0-2.4-0.46-3.31-1.37
		c-0.91-0.91-1.37-2.01-1.37-3.31v-52.17h-61.99v52.17c0,1.3-0.46,2.4-1.37,3.31c-0.91,0.91-1.98,1.37-3.2,1.37h-11.3
		c-1.3,0-2.4-0.46-3.31-1.37c-0.91-0.91-1.37-2.01-1.37-3.31V355.29c0-1.29,0.46-2.4,1.37-3.31c0.91-0.91,2.02-1.37,3.31-1.37h11.3
		c1.22,0,2.28,0.46,3.2,1.37c0.91,0.91,1.37,2.02,1.37,3.31v49.55h61.99v-49.55c0-1.29,0.46-2.4,1.37-3.31
		c0.91-0.91,2.02-1.37,3.31-1.37h11.19c1.29,0,2.4,0.46,3.31,1.37c0.91,0.91,1.37,2.02,1.37,3.31V474.48z"/>
	<path class="st3" d="M1232.69,474.48c0,1.3-0.48,2.4-1.43,3.31c-0.95,0.91-2.04,1.37-3.25,1.37h-10.85c-1.22,0-2.28-0.46-3.2-1.37
		c-0.91-0.91-1.37-2.01-1.37-3.31v-5.14c-13.02,7.61-25.04,11.42-36.08,11.42c-12.26,0-21.67-3.18-28.26-9.53
		c-6.58-6.36-9.88-15.77-9.88-28.26v-2.85c0-13.02,4.32-22.59,12.96-28.71c8.64-6.12,23.12-9.19,43.44-9.19h17.24v-9.36
		c0-9.67-1.85-16.48-5.54-20.44c-3.69-3.96-10.18-5.94-19.47-5.94c-8.83,0-16.25,0.23-22.26,0.68l-14.5,1.26
		c-2.89,0-4.34-1.29-4.34-3.88v-8.11c0-1.67,0.61-2.85,1.83-3.54c1.22-0.68,5.67-1.52,13.36-2.51c7.69-0.99,16.33-1.48,25.92-1.48
		c30.44,0,45.67,14.65,45.67,43.96V474.48z M1212.03,454.62v-37.67h-17.24c-13.02,0-22.23,1.54-27.63,4.62
		c-5.41,3.08-8.11,9.19-8.11,18.33v2.85c0,7.38,1.6,12.77,4.79,16.15c3.2,3.39,8.75,5.08,16.67,5.08
		C1190.18,463.98,1200.69,460.86,1212.03,454.62z"/>
	<path class="st3" d="M1367.53,474.48c0,1.3-0.46,2.4-1.37,3.31c-0.91,0.91-2.02,1.37-3.31,1.37h-11.19c-1.3,0-2.4-0.46-3.31-1.37
		c-0.91-0.91-1.37-2.01-1.37-3.31v-52.17h-61.99v52.17c0,1.3-0.46,2.4-1.37,3.31c-0.91,0.91-1.98,1.37-3.2,1.37h-11.3
		c-1.3,0-2.4-0.46-3.31-1.37c-0.91-0.91-1.37-2.01-1.37-3.31V355.29c0-1.29,0.46-2.4,1.37-3.31c0.91-0.91,2.02-1.37,3.31-1.37h11.3
		c1.22,0,2.28,0.46,3.2,1.37c0.91,0.91,1.37,2.02,1.37,3.31v49.55h61.99v-49.55c0-1.29,0.46-2.4,1.37-3.31
		c0.91-0.91,2.02-1.37,3.31-1.37h11.19c1.29,0,2.4,0.46,3.31,1.37c0.91,0.91,1.37,2.02,1.37,3.31V474.48z"/>
	<path class="st3" d="M1478.96,473.11c0,2.59-0.84,4.15-2.51,4.68c-1.67,0.54-5.78,1.16-12.33,1.88c-6.55,0.72-12.9,1.09-19.07,1.09
		c-15.53,0-27.73-5.06-36.59-15.19c-8.87-10.12-13.3-23.98-13.3-41.56v-18.27c0-17.66,4.41-31.55,13.24-41.67
		c8.83-10.12,21.04-15.18,36.65-15.18c7.69,0,14.8,0.46,21.35,1.37c6.54,0.91,10.28,1.73,11.19,2.45c0.91,0.72,1.37,2.04,1.37,3.94
		v8.45c0,2.29-1.64,3.43-4.91,3.43c-9.67-1.07-19.33-1.6-29-1.6c-19.49,0-29.23,12.94-29.23,38.82v18.27
		c0,25.88,9.74,38.82,29.23,38.82c8.45,0,15.36-0.29,20.72-0.86c5.37-0.57,8.31-0.85,8.85-0.85c2.89,0,4.34,1.18,4.34,3.54V473.11z"
		/>
	<path class="st3" d="M1606.83,441.49c0,26.19-19.71,39.28-59.14,39.28c-8.37,0-16.94-0.19-25.69-0.57
		c-8.75-0.38-13.76-1.16-15.01-2.34c-1.26-1.18-1.88-2.83-1.88-4.97V355.29c0-1.29,0.46-2.4,1.37-3.31
		c0.91-0.91,2.01-1.37,3.31-1.37h11.3c1.22,0,2.28,0.46,3.2,1.37c0.91,0.91,1.37,2.02,1.37,3.31v45.55
		c8.91-0.3,16.25-0.46,22.04-0.46c39.43,0,59.14,13.09,59.14,39.28V441.49z M1586.05,441.49v-1.82c0-7.38-3.14-12.83-9.42-16.33
		c-6.28-3.5-16.16-5.25-29.63-5.25l-21.35,0.8v43.5l21.35,0.68c13.47,0,23.35-1.75,29.63-5.25
		C1582.91,454.31,1586.05,448.87,1586.05,441.49z M1645.65,474.48c0,1.3-0.46,2.4-1.37,3.31c-0.91,0.91-2.02,1.37-3.31,1.37h-11.19
		c-1.3,0-2.4-0.46-3.31-1.37c-0.91-0.91-1.37-2.01-1.37-3.31V355.29c0-1.29,0.46-2.4,1.37-3.31c0.91-0.91,2.01-1.37,3.31-1.37h11.19
		c1.29,0,2.4,0.46,3.31,1.37c0.91,0.91,1.37,2.02,1.37,3.31V474.48z"/>
	<path class="st3" d="M1759.82,475.63l-28.32-104.01c-0.76-2.81-2.24-4.22-4.45-4.22c-2.36,0-3.92,1.41-4.68,4.22l-28.31,104.01
		c-0.53,2.36-1.94,3.54-4.22,3.54h-13.81c-2.59,0-3.88-1.26-3.88-3.77c0-0.53,0.07-1.07,0.23-1.6l30.82-107.09
		c3.5-11.87,11.45-17.81,23.86-17.81c12.41,0,20.28,5.86,23.63,17.58l30.6,107.32c0.15,0.3,0.23,0.84,0.23,1.6
		c0,2.51-1.33,3.77-4,3.77h-13.81C1761.72,479.16,1760.42,477.99,1759.82,475.63z"/>
	<path class="st3" d="M1895.22,474.48c0,1.3-0.48,2.4-1.43,3.31c-0.95,0.91-2.04,1.37-3.26,1.37h-10.84c-1.22,0-2.28-0.46-3.2-1.37
		c-0.91-0.91-1.37-2.01-1.37-3.31v-5.14c-13.02,7.61-25.04,11.42-36.08,11.42c-12.26,0-21.67-3.18-28.26-9.53
		c-6.59-6.36-9.88-15.77-9.88-28.26v-2.85c0-13.02,4.32-22.59,12.96-28.71c8.64-6.12,23.12-9.19,43.44-9.19h17.24v-9.36
		c0-9.67-1.85-16.48-5.54-20.44c-3.69-3.96-10.18-5.94-19.47-5.94c-8.83,0-16.25,0.23-22.26,0.68l-14.5,1.26
		c-2.9,0-4.34-1.29-4.34-3.88v-8.11c0-1.67,0.61-2.85,1.83-3.54c1.22-0.68,5.67-1.52,13.36-2.51c7.69-0.99,16.33-1.48,25.92-1.48
		c30.44,0,45.67,14.65,45.67,43.96V474.48z M1874.55,454.62v-37.67h-17.24c-13.02,0-22.22,1.54-27.63,4.62
		c-5.41,3.08-8.11,9.19-8.11,18.33v2.85c0,7.38,1.6,12.77,4.8,16.15c3.2,3.39,8.75,5.08,16.67,5.08
		C1852.71,463.98,1863.21,460.86,1874.55,454.62z"/>
	<path class="st3" d="M2025.94,423.56c0,18.72-4.32,32.94-12.96,42.64c-8.64,9.7-21.33,14.56-38.08,14.56
		c-8.45,0-17.58-0.84-27.4-2.51v42.24c0,1.22-0.42,2.26-1.26,3.14c-0.84,0.87-1.87,1.31-3.08,1.31h-11.99
		c-2.82,0-4.22-1.48-4.22-4.45V359.63c0-1.98,0.61-3.39,1.83-4.23c1.22-0.84,6.81-2.13,16.78-3.88c9.97-1.75,19.75-2.63,29.34-2.63
		c16.52,0,29.15,4.99,37.9,14.96c8.75,9.97,13.13,24.24,13.13,42.81V423.56z M2005.28,423.56v-16.9c0-14-2.47-24.24-7.42-30.71
		c-4.95-6.47-12.6-9.7-22.95-9.7c-9.13,0-18.27,0.76-27.4,2.28v92.59c9.06,1.6,18.19,2.4,27.4,2.4c10.43,0,18.1-3.18,23.01-9.53
		C2002.82,447.64,2005.28,437.49,2005.28,423.56z"/>
	<path class="st3" d="M2155.18,441.49c0,26.19-19.71,39.28-59.14,39.28c-8.37,0-16.94-0.19-25.69-0.57
		c-8.75-0.38-13.76-1.16-15.01-2.34c-1.26-1.18-1.88-2.83-1.88-4.97V355.29c0-1.29,0.46-2.4,1.37-3.31
		c0.91-0.91,2.01-1.37,3.31-1.37h11.3c1.22,0,2.28,0.46,3.2,1.37c0.91,0.91,1.37,2.02,1.37,3.31v45.55
		c8.91-0.3,16.25-0.46,22.04-0.46c39.43,0,59.14,13.09,59.14,39.28V441.49z M2134.4,441.49v-1.82c0-7.38-3.14-12.83-9.42-16.33
		c-6.28-3.5-16.16-5.25-29.63-5.25l-21.35,0.8v43.5l21.35,0.68c13.47,0,23.35-1.75,29.63-5.25
		C2131.26,454.31,2134.4,448.87,2134.4,441.49z M2194,474.48c0,1.3-0.46,2.4-1.37,3.31c-0.91,0.91-2.02,1.37-3.31,1.37h-11.19
		c-1.3,0-2.4-0.46-3.31-1.37c-0.91-0.91-1.37-2.01-1.37-3.31V355.29c0-1.29,0.46-2.4,1.37-3.31c0.91-0.91,2.01-1.37,3.31-1.37h11.19
		c1.29,0,2.4,0.46,3.31,1.37c0.91,0.91,1.37,2.02,1.37,3.31V474.48z"/>
</g>
</svg>
