<?xml version="1.0" encoding="utf-8"?>
<!-- Generator: Adobe Illustrator 24.1.2, SVG Export Plug-In . SVG Version: 6.00 Build 0)  -->
<svg version="1.1" id="Слой_1" xmlns="http://www.w3.org/2000/svg" xmlns:xlink="http://www.w3.org/1999/xlink" x="0px" y="0px"
	 viewBox="0 0 1785 612" style="enable-background:new 0 0 1785 612;" xml:space="preserve">
<style type="text/css">
	.st0{fill:#FECC18;}
	.st1{fill:#6BC4C9;}
	.st2{fill:#117481;}
	.st3{fill:#0B7581;}
	.st4{fill:#007480;}
</style>
<g>
	<path class="st0" d="M316.7,210.79c-0.87,0.69-1.54,1.25-2.23,1.77c-6.92,5.27-13.5,10.88-18.73,17.93
		c-11.32,15.25-16.51,32.37-15.18,51.29c2.29,32.38,24.14,59.33,55.48,67.94c24.16,6.64,46.55,2.2,66.64-12.8
		c3.08-2.3,5.34-5.69,7.98-8.57c0.22-0.24,0.4-0.5,0.84-1.06c-0.11,0.7-0.14,1.05-0.22,1.38c-5.11,19.57-15.65,35.53-31.55,48.03
		c-7.12,5.6-14.69,10.4-23.04,13.93c-15.11,6.38-30.86,8.71-47.13,6.79c-22.09-2.62-41.01-11.9-56.52-27.87
		c-13.46-13.86-21.96-30.39-25-49.46c-4.43-27.78,2.25-52.84,19.89-74.77c8.56-10.65,19.11-19.06,31.26-25.33
		c11.33-5.84,23.44-8.82,36.18-9.24C315.71,210.74,316.07,210.77,316.7,210.79z"/>
</g>
<g>
	<path class="st3" d="M1785,246.75c-1.15,2.44-3.21,3.04-5.71,3.02c-6.34-0.05-12.69-0.01-19.03-0.01c-18.37,0-36.73,0-55.1,0
		c-1.32,0-2.64,0-4.17,0c-0.12,1.12-0.27,1.97-0.28,2.82c-0.12,6.14,0.42,12.22,2,18.17c3.4,12.75,11.82,19.75,24.97,20.88
		c9.69,0.83,19.35,0.16,29.01-0.43c6.55-0.4,13.06-1.25,19.6-1.87c3.94-0.37,4.97,0.58,5.03,4.61c0.03,2.22,0.07,4.45-0.02,6.67
		c-0.14,3.62-1,4.83-4.53,5.52c-5.12,1-10.28,1.9-15.46,2.54c-9.62,1.19-19.28,1.66-28.98,1.55c-6.04-0.07-12-0.71-17.8-2.39
		c-18.2-5.27-28.87-17.55-33.03-35.79c-1.44-6.32-1.98-12.74-1.98-19.21c-0.01-8.01-0.09-16.02,0.08-24.03
		c0.16-7.48,1.26-14.85,3.96-21.89c6.42-16.76,18.51-26.85,36.15-30.09c8.82-1.62,17.75-1.63,26.56,0.15
		c19.68,3.98,31.66,16.11,36.66,35.34c0.75,2.88,0.92,5.91,1.41,8.86c0.16,0.96,0.44,1.91,0.67,2.86
		C1785,231.61,1785,239.18,1785,246.75z M1763.7,233.53c0.27-8.57-0.36-16.78-3.78-24.58c-2.95-6.73-7.99-11.11-15.04-13.15
		c-7.19-2.08-14.46-2.25-21.77-0.64c-9.3,2.05-15.65,7.55-19.17,16.37c-2.08,5.23-2.93,10.7-3.18,16.28
		c-0.08,1.85-0.01,3.71-0.01,5.73C1721.88,233.53,1742.62,233.53,1763.7,233.53z"/>
	<path class="st3" d="M775.32,481.1c0,1.64,0,2.83,0,4.03c0,11.02,0.01,22.04-0.01,33.06c-0.01,4.82-1.35,6.18-6.09,6.2
		c-3.12,0.02-6.24,0.03-9.35,0c-4.26-0.04-5.37-1.11-5.38-5.31c-0.03-11.35-0.01-22.71-0.01-34.06c0-1.19,0-2.38,0-3.9
		c-3.98,0.37-7.5,0.68-11.02,1.02c-9.33,0.88-18.66,1.39-27.93-0.56c-17.64-3.71-28.92-14.39-34.34-31.43
		c-2.14-6.72-3.2-13.66-3.34-20.69c-0.17-9.01-0.18-18.03,0-27.04c0.15-7.48,1.3-14.83,3.63-21.98c5.71-17.44,17.83-27.5,35.7-30.69
		c5.01-0.89,10.17-1.28,15.27-1.31c22.16-0.14,44.32-0.07,66.48-0.05c6.49,0,12.88,0.82,19.12,2.61
		c14.26,4.09,24.01,13.09,29.28,26.94c3.24,8.53,4.42,17.45,4.6,26.5c0.16,7.68,0.17,15.36,0,23.04c-0.22,9.39-1.5,18.62-5.13,27.39
		c-6.27,15.13-17.64,23.87-33.6,26.91c-8.97,1.71-17.96,1.18-26.95,0.37C782.81,481.85,779.39,481.49,775.32,481.1z M754.14,463.53
		c0.68-5.12,0.45-93.67-0.24-96.19c-0.68-0.12-1.43-0.34-2.19-0.37c-7.11-0.29-14.23-0.64-21.35-0.76
		c-2.65-0.05-5.35,0.26-7.95,0.77c-9.96,1.95-16.87,7.56-20.31,17.25c-1.84,5.18-2.91,10.55-3.02,16
		c-0.2,10.45-0.23,20.92,0.01,31.37c0.14,6.24,1.36,12.37,3.87,18.16c3.22,7.42,8.68,12.3,16.56,14.23c2.79,0.68,5.7,1.22,8.55,1.2
		c6.34-0.06,12.67-0.46,19-0.83C749.4,464.24,751.7,463.83,754.14,463.53z M775.57,367.25c0,32.33,0,64.2,0,95.94
		c0.43,0.24,0.62,0.42,0.82,0.44c9.06,1.09,18.15,2.05,27.29,1.53c12.48-0.71,20.74-7.22,24.51-19.14
		c1.9-5.99,2.65-12.16,2.67-18.41c0.03-7.79,0.03-15.58,0-23.37c-0.02-6.49-0.83-12.87-2.85-19.06
		c-3.38-10.39-10.54-16.49-21.29-18.32c-7.85-1.34-15.76-0.69-23.64-0.28C780.66,366.71,778.25,367.01,775.57,367.25z"/>
	<path class="st3" d="M706.44,274.92c0.67-1.2,1.37-2.39,2.01-3.61c23.23-44.09,46.55-88.14,69.57-132.34
		c2.93-5.63,6.54-8.26,12.81-7.72c3.65,0.31,7.35,0.02,11.02,0.07c5.01,0.07,7.51,2.6,7.65,7.65c0.02,0.89,0.01,1.78,0.01,2.67
		c0,53.43,0,106.86,0,160.28c0,0.78,0.01,1.56-0.01,2.34c-0.08,3.45-0.83,4.32-4.35,4.42c-3.89,0.12-7.8,0.11-11.69,0.01
		c-3.3-0.09-4.73-1.68-4.84-5.06c-0.03-0.89-0.01-1.78-0.01-2.67c0-44.08,0-88.16,0-132.23c0-1.28,0-2.56,0-4.27
		c-1.82,0.98-2.13,2.34-2.71,3.44c-12.71,24.11-25.39,48.23-38.08,72.36c-10.93,20.77-21.95,41.5-32.71,62.36
		c-2.25,4.35-5.34,6.25-10.06,6.13c-4.01-0.1-8.03-0.2-12.02,0.03c-4.96,0.29-8.66-2.95-8.64-8.58c0.16-35.4,0.08-70.79,0.08-106.19
		c0-18.59,0-37.18,0-55.77c0-1-0.06-2.01,0.04-3c0.24-2.41,1.41-3.77,3.8-3.85c4.34-0.15,8.69-0.15,13.02-0.02
		c2.46,0.07,4.06,1.8,4.31,4.27c0.11,1.1,0.05,2.22,0.05,3.34c0,43.97,0,87.93,0,131.9c0,1.28,0,2.57,0,3.85
		C705.95,274.78,706.19,274.85,706.44,274.92z"/>
	<path class="st3" d="M1248.37,243.71c0.93-1.45,1.76-2.59,2.43-3.81c10.44-18.89,20.95-37.74,31.2-56.73
		c2.27-4.21,5.31-5.92,9.89-5.78c4.45,0.14,8.91,0.01,13.36,0.04c4.38,0.03,6.01,1.65,6.01,6.07c0.02,23.26,0.01,46.52,0.01,69.78
		c0,16.25,0.01,32.5,0,48.75c0,5.2-1.49,6.65-6.8,6.68c-2.56,0.01-5.12,0.03-7.68-0.01c-4.32-0.07-6.12-1.82-6.13-6.09
		c-0.04-9.46-0.01-18.92-0.01-28.38c0-21.93,0-43.85-0.01-65.78c0-1.06-0.09-2.12-0.64-3.34c-0.59,0.99-1.22,1.97-1.78,2.99
		c-8.21,14.91-16.51,29.77-24.55,44.77c-2.48,4.63-6.06,6.53-11.08,6.42c-2.67-0.06-5.35-0.13-8.02,0.01
		c-5.22,0.28-8.88-1.79-11.39-6.46c-5.48-10.19-11.17-20.26-16.77-30.39c-3.17-5.74-6.32-11.48-9.64-17.5
		c-1.1,1.39-0.68,2.74-0.68,3.95c-0.03,27.6-0.02,55.2-0.02,82.8c0,3.56,0.03,7.12-0.01,10.68c-0.05,4.58-1.72,6.26-6.25,6.32
		c-2.56,0.03-5.12,0.02-7.68,0c-5.11-0.03-6.61-1.49-6.61-6.51c-0.01-20.03-0.01-40.07-0.01-60.1c0-19.03,0-38.06,0-57.09
		c0-1-0.04-2.01,0.05-3c0.23-2.63,1.83-4.45,4.47-4.5c5.9-0.12,11.8-0.07,17.7,0.04c2.81,0.05,4.59,1.63,5.96,4.11
		c9.69,17.65,19.49,35.24,29.25,52.85c1.35,2.43,2.66,4.89,4.02,7.31C1247.25,242.35,1247.7,242.82,1248.37,243.71z"/>
	<path class="st3" d="M1136.69,230.1c0.13-7.66,0.46-14.76-1.25-21.77c-1.74-7.14-6.05-11.76-13.28-13.45
		c-1.94-0.45-3.93-0.89-5.92-0.96c-11.36-0.4-22.71-0.17-34.03,0.98c-2.66,0.27-5.32,0.52-7.99,0.66c-3.56,0.18-4.86-1.06-4.93-4.63
		c-0.05-2.34-0.06-4.68,0-7.01c0.08-3.04,0.74-4,3.68-4.69c3.03-0.71,6.1-1.26,9.18-1.68c12.17-1.64,24.39-2.23,36.65-1.49
		c5.92,0.35,11.68,1.66,17.12,4.07c12.04,5.33,18.51,14.95,20.73,27.57c0.83,4.69,1.21,9.51,1.23,14.27
		c0.11,26.38,0.05,52.76,0.05,79.14c0,0.67,0.02,1.34-0.01,2c-0.21,3.69-1.98,5.48-5.68,5.57c-3.12,0.08-6.24,0.08-9.35,0
		c-3.77-0.09-5.41-1.8-5.51-5.58c-0.03-1.21-0.01-2.43-0.01-4.25c-1.45,0.71-2.51,1.19-3.53,1.73c-8.4,4.48-17.14,8.03-26.66,9.2
		c-7.81,0.96-15.59,0.59-23.11-1.92c-10.84-3.62-17.94-10.96-20.75-22.08c-2.46-9.75-2.67-19.61-0.16-29.39
		c2.33-9.05,7.9-15.55,16.27-19.66c5.96-2.92,12.35-4.35,18.87-5.32c11.18-1.67,22.43-1.29,33.67-1.33
		C1133.42,230.09,1134.85,230.1,1136.69,230.1z M1136.62,245.49c-0.72-0.14-1.05-0.26-1.37-0.26c-8.56,0.06-17.14-0.15-25.69,0.31
		c-4.83,0.26-9.69,1.31-14.39,2.57c-7.08,1.91-10.81,7.02-11.95,14.13c-0.8,4.97-0.82,9.96-0.11,14.94
		c1.43,9.89,6.25,14.59,16.07,15.65c0.66,0.07,1.33,0.09,2,0.13c11.83,0.81,22.58-2.8,32.97-7.98c1.97-0.98,2.7-2.12,2.67-4.36
		c-0.13-10.67-0.05-21.35-0.06-32.03C1136.77,247.63,1136.68,246.65,1136.62,245.49z"/>
	<path class="st3" d="M1210.41,471.45c-2.24,1.19-3.78,2.03-5.35,2.83c-8.69,4.45-17.74,7.74-27.55,8.54
		c-7.41,0.6-14.69-0.12-21.69-2.7c-10.39-3.84-16.9-11.29-19.56-21.98c-2.21-8.87-2.3-17.9-0.57-26.83
		c2.13-10.96,8.69-18.54,19.01-22.85c6.22-2.59,12.73-4.21,19.41-4.6c10.44-0.6,20.9-0.69,31.36-0.98c1.31-0.04,2.61,0,4.24,0
		c0.02-8.49,0.73-16.59-2.03-24.45c-2.63-7.47-8.5-10.65-15.79-11.45c-5.29-0.58-10.67-0.73-15.99-0.54
		c-8.23,0.29-16.43,1.03-24.65,1.57c-1.67,0.11-3.34,0.3-5,0.25c-2.48-0.07-3.77-1.22-3.89-3.65c-0.15-2.89-0.15-5.79,0-8.68
		c0.12-2.46,1.2-3.58,4.03-4.13c4.04-0.78,8.1-1.5,12.18-1.97c9.63-1.1,19.3-1.7,29-1.38c5.34,0.18,10.63,0.89,15.8,2.38
		c14.6,4.19,23.23,13.89,26.17,28.62c0.86,4.33,1.31,8.82,1.32,13.25c0.12,27.27,0.06,54.54,0.06,81.81c0,0.67,0.03,1.34-0.02,2
		c-0.21,2.81-1.86,4.61-4.63,4.7c-3.78,0.12-7.57,0.11-11.36,0c-2.62-0.08-4.29-1.81-4.48-4.45
		C1210.32,475.22,1210.41,473.67,1210.41,471.45z M1209.57,418.3c-0.4-0.2-0.6-0.38-0.79-0.39c-10.12-0.17-20.26-0.49-30.34,0.69
		c-3.62,0.42-7.22,1.33-10.71,2.39c-6.06,1.83-9.67,6.06-11.06,12.21c-1.35,5.95-1.32,11.96-0.33,17.9
		c1.46,8.74,6.01,12.87,14.82,14.26c4.68,0.74,9.31,0.62,13.95-0.12c8.77-1.39,16.87-4.61,24.46-8.91
		C1209.57,443.46,1209.57,430.82,1209.57,418.3z"/>
	<path class="st3" d="M1087.83,423.46c-21.31,0-42.07,0-63.31,0c0,1.49,0,2.78,0,4.08c0,15.47,0,30.95,0,46.42c0,1,0.05,2.01-0.06,3
		c-0.28,2.46-1.89,4.12-4.37,4.19c-4.01,0.12-8.02,0.11-12.03,0.01c-2.56-0.07-4.09-1.62-4.36-4.15c-0.11-0.99-0.06-2-0.06-3
		c0-38.85,0-77.7,0-116.55c0-0.56-0.01-1.11,0-1.67c0.1-4.18,1.46-5.52,5.7-5.56c3.12-0.03,6.24-0.03,9.35,0
		c4.3,0.04,5.81,1.5,5.82,5.83c0.03,14.36,0.01,28.72,0.01,43.08c0,1.88,0,3.75,0,5.53c2.59,0.85,58.83,1.08,63.31,0.25
		c0-1.21,0-2.51,0-3.8c0-14.25,0-28.5,0-42.75c0-1-0.03-2.01,0.02-3.01c0.17-3.56,1.64-5.06,5.16-5.13c3.56-0.06,7.13-0.07,10.69,0
		c3.31,0.07,4.86,1.64,5.01,4.91c0.04,0.78,0.01,1.56,0.01,2.34c0,38.85,0,77.7,0,116.55c0,0.78,0.03,1.56-0.01,2.34
		c-0.17,3.08-1.73,4.73-4.8,4.8c-3.78,0.09-7.57,0.09-11.36-0.01c-2.89-0.08-4.43-1.67-4.68-4.58c-0.08-1-0.05-2-0.05-3
		c0-15.25,0-30.5,0-45.75C1087.83,426.51,1087.83,425.19,1087.83,423.46z"/>
	<path class="st3" d="M1276.52,405.16c21.29,0,42.15,0,63.41,0c0-1.53,0-2.83,0-4.14c0-14.58,0-29.16,0-43.74
		c0-0.89-0.04-1.79,0.03-2.67c0.22-2.54,1.72-4.24,4.2-4.32c4.12-0.13,8.24-0.13,12.36-0.01c2.37,0.07,3.87,1.61,4.19,3.96
		c0.13,0.99,0.11,2,0.11,3c0,38.96,0,77.91,0,116.87c0,0.78,0.03,1.56-0.03,2.34c-0.24,3.1-1.78,4.67-4.88,4.73
		c-3.78,0.08-7.57,0.09-11.36-0.01c-2.85-0.08-4.42-1.76-4.6-4.64c-0.06-0.89-0.02-1.78-0.02-2.67c0-15.47,0-30.94,0-46.41
		c0-1.21,0-2.42,0-3.55c-2.68-0.77-59.03-0.94-63.25-0.21c-0.05,1.19-0.16,2.48-0.16,3.77c-0.01,15.47-0.01,30.94-0.01,46.41
		c0,1,0.05,2.01-0.04,3c-0.22,2.53-1.75,4.2-4.24,4.28c-4.12,0.12-8.24,0.12-12.36-0.01c-2.33-0.08-3.86-1.72-4.14-4.04
		c-0.12-0.99-0.07-2-0.07-3c0-38.96,0-77.91,0-116.87c0-0.78-0.03-1.56,0.02-2.34c0.2-2.92,1.72-4.55,4.61-4.63
		c3.89-0.1,7.8-0.1,11.69,0c2.74,0.07,4.27,1.66,4.49,4.37c0.07,0.89,0.03,1.78,0.03,2.67c0,14.58,0,29.16,0,43.74
		C1276.52,402.34,1276.52,403.65,1276.52,405.16z"/>
	<path class="st3" d="M1635.25,299.5c-1.65,0.81-2.82,1.36-3.96,1.95c-12,6.21-24.66,9.62-38.24,8.59
		c-4.07-0.31-8.19-1.06-12.08-2.28c-9.32-2.91-15.86-9.16-19.96-17.99c-3.33-7.18-4.73-14.81-5.09-22.63
		c-0.25-5.44-0.14-10.9-0.14-16.35c-0.01-21.92,0-43.84,0-65.76c0-1-0.05-2.01,0.02-3c0.18-2.61,1.78-4.43,4.42-4.53
		c4-0.16,8.02-0.15,12.02,0c2.46,0.09,4.04,1.8,4.32,4.28c0.14,1.21,0.11,2.44,0.11,3.67c0.01,24.48,0.01,48.96,0,73.44
		c0,5.79,0.31,11.55,1.71,17.21c2.27,9.17,8.11,14.14,17.39,15.58c8.49,1.31,16.64,0.08,24.62-2.68c4.09-1.41,8.02-3.29,12.09-4.78
		c2.27-0.83,2.82-2.26,2.82-4.56c-0.07-28.37-0.05-56.75-0.05-85.12c0-3.78-0.03-7.57,0.01-11.35c0.05-3.95,1.76-5.68,5.69-5.74
		c3.23-0.05,6.46-0.04,9.68,0c3.82,0.05,5.36,1.64,5.45,5.54c0.02,0.67,0,1.34,0,2c0,38.72,0,77.45,0,116.17
		c0,0.78,0.02,1.56-0.01,2.34c-0.13,3.49-1.66,5.11-5.12,5.2c-3.56,0.09-7.13,0.1-10.69-0.01c-3.25-0.1-4.86-1.79-5.01-5
		C1635.21,302.49,1635.25,301.29,1635.25,299.5z"/>
	<path class="st3" d="M954.89,472.18c-1.68,0.81-2.67,1.25-3.64,1.76c-9.99,5.27-20.56,8.47-31.88,8.94
		c-7.07,0.3-14.01-0.47-20.65-3.1c-8.27-3.27-14.14-9.09-17.91-17.09c-3.38-7.16-4.84-14.79-5.2-22.62
		c-0.26-5.56-0.16-11.13-0.17-16.69c-0.01-21.93-0.01-43.86,0-65.79c0-1-0.04-2.01,0.04-3c0.22-2.55,1.71-4.23,4.21-4.31
		c4.12-0.13,8.24-0.12,12.36-0.01c2.33,0.06,3.9,1.68,4.17,3.99c0.13,1.1,0.07,2.22,0.07,3.34c0,25.05-0.09,50.1,0.08,75.14
		c0.04,5.19,0.62,10.46,1.7,15.54c2.08,9.74,7.38,14.96,19.26,16.27c8.24,0.91,16.21-0.45,23.94-3.28
		c3.65-1.34,7.18-3.02,10.82-4.37c2.25-0.84,3.1-2.26,2.79-4.57c-0.12-0.87-0.02-1.78-0.02-2.67c0-30.39,0-60.78,0-91.18
		c0-1.22-0.04-2.46,0.07-3.67c0.27-2.85,1.91-4.49,4.75-4.56c3.9-0.09,7.8-0.09,11.69,0c2.55,0.06,4.09,1.62,4.34,4.14
		c0.09,0.88,0.04,1.78,0.04,2.67c0,39.08,0,78.15,0,117.23c0,0.78,0.03,1.56-0.02,2.34c-0.19,2.95-1.68,4.49-4.62,4.55
		c-3.79,0.08-7.57,0.07-11.36,0c-3.12-0.06-4.61-1.54-4.85-4.73C954.81,475.26,954.89,474.05,954.89,472.18z"/>
	<path class="st3" d="M1512.8,401.01c5.65,0,10.75,0.03,15.85-0.01c9.35-0.07,18.7-0.13,27.97,1.45c7.05,1.2,13.92,2.98,20.28,6.36
		c11.08,5.88,17.26,15,18.42,27.55c0.49,5.25,0.34,10.44-0.68,15.6c-1.88,9.5-7.13,16.65-15.31,21.68
		c-6.54,4.03-13.78,6.16-21.28,7.47c-11.35,1.98-22.8,2.11-34.28,1.69c-7.34-0.27-14.67-0.61-22.01-0.99
		c-1.77-0.09-3.54-0.39-5.28-0.75c-3.13-0.65-4.51-2.32-4.73-5.55c-0.05-0.78-0.02-1.56-0.02-2.34c0-38.72,0-77.44,0-116.16
		c0-0.78-0.04-1.56,0.03-2.34c0.23-2.65,1.84-4.34,4.5-4.41c4-0.11,8.02-0.1,12.02,0c2.25,0.06,3.72,1.33,4.23,3.55
		c0.27,1.17,0.28,2.42,0.28,3.64c0.02,13.24,0.01,26.48,0.01,39.72C1512.8,398.38,1512.8,399.58,1512.8,401.01z M1512.97,419.82
		c0,14.87,0,29.38,0,43.88c0.45,0.17,0.75,0.38,1.05,0.39c12.32,0.53,24.66,1.44,36.95-0.35c4.84-0.7,9.58-1.92,13.91-4.37
		c4.59-2.6,7.89-6.31,8.83-11.52c0.58-3.23,0.57-6.63,0.31-9.92c-0.46-5.99-3.68-10.48-8.89-13.26c-3-1.6-6.3-2.82-9.61-3.63
		C1541.59,417.62,1527.47,419.37,1512.97,419.82z"/>
	<path class="st3" d="M1482.23,239.46c3.91,4.72,7.59,9.17,11.28,13.61c13.43,16.2,26.86,32.39,40.29,48.59
		c0.43,0.51,0.85,1.03,1.26,1.56c1.01,1.28,0.98,2.74,0.39,4.1c-0.56,1.3-1.89,1.39-3.16,1.38c-1.56,0-3.12,0-4.68,0
		c-3.56,0-7.13-0.07-10.69,0.02c-2.42,0.06-4.23-0.79-5.77-2.69c-6.57-8.14-13.24-16.2-19.85-24.32
		c-8.5-10.45-16.98-20.91-25.48-31.37c-0.69-0.84-1.42-1.65-2.74-3.16c-0.06,1.94-0.13,3.09-0.13,4.24
		c-0.01,16.59,0,33.17-0.01,49.76c0,0.89,0.03,1.78-0.02,2.67c-0.16,2.81-1.73,4.66-4.53,4.78c-3.89,0.17-7.8,0.17-11.69-0.01
		c-2.83-0.13-4.38-1.95-4.58-4.77c-0.06-0.89-0.03-1.78-0.03-2.67c0-38.74,0.06-77.47-0.06-116.21c-0.02-6.06,1.8-7.91,7.61-7.57
		c2.55,0.15,5.12-0.01,7.68,0.03c4.01,0.06,5.6,1.66,5.6,5.74c0.02,15.14,0.01,30.28,0.01,45.41c0,1.18,0,2.35,0,3.53
		c0.24,0.1,0.49,0.2,0.73,0.3c0.79-0.85,1.59-1.69,2.36-2.56c14.66-16.46,29.34-32.9,43.93-49.43c1.85-2.1,3.8-3.14,6.62-3.05
		c4.78,0.16,9.58,0.04,14.36,0.05c0.78,0,1.57-0.04,2.33,0.1c2.42,0.44,3.28,2.4,1.96,4.47c-0.47,0.74-1.15,1.35-1.76,2.01
		c-16.03,17.32-32.06,34.64-48.09,51.97C1484.43,237.03,1483.47,238.1,1482.23,239.46z"/>
	<path class="st3" d="M1035.58,308.71c-1.89,0-3.79,0.02-5.68,0c-3.69-0.05-4.66-0.73-5.67-4.33c-2.15-7.71-4.21-15.44-6.32-23.16
		c-7.34-26.92-14.67-53.84-22.02-80.76c-0.32-1.17-0.64-2.39-1.22-3.44c-1.76-3.18-5.71-3.27-7.54-0.15
		c-0.72,1.22-1.08,2.67-1.45,4.06c-9.34,34.21-18.67,68.42-28,102.63c-1.25,4.58-1.98,5.14-6.72,5.16
		c-3.56,0.01-7.13,0.03-10.69-0.01c-4.83-0.05-6.15-1.8-4.83-6.54c1.61-5.78,3.3-11.54,4.96-17.31
		c8.68-30.12,17.34-60.25,26.04-90.36c3.81-13.19,12.23-19.21,25.93-18.69c11.9,0.45,19.32,6.14,22.65,17.6
		c4.28,14.73,8.45,29.49,12.65,44.24c5.98,20.95,11.95,41.91,17.92,62.86c0.27,0.96,0.61,1.91,0.8,2.89
		c0.63,3.4-0.68,5.12-4.14,5.29c-2.22,0.11-4.45,0.02-6.68,0.02C1035.58,308.7,1035.58,308.71,1035.58,308.71z"/>
	<path class="st3" d="M856.7,243c0,5.67-0.19,11.36,0.05,17.02c0.25,5.81,1.51,11.47,3.99,16.78c4.17,8.92,11.17,14.23,20.99,14.75
		c7.97,0.43,16-0.08,24-0.34c3.44-0.11,6.86-0.77,10.3-0.93c3.63-0.17,4.76,1.04,4.8,4.72c0.03,2.67,0.08,5.35-0.04,8.01
		c-0.12,2.76-1.02,4-3.61,4.45c-13.2,2.29-26.48,3.83-39.85,2.11c-18.53-2.38-30.74-12.99-37.58-30.07
		c-2.62-6.56-4.05-13.46-4.2-20.5c-0.23-10.68-0.39-21.38,0.03-32.04c0.47-11.87,3.63-23.05,10.82-32.79
		c8.18-11.07,19.36-16.9,32.89-18.07c11.92-1.03,23.8-0.05,35.57,2.08c0.22,0.04,0.43,0.12,0.64,0.17c4.87,1.11,5.32,1.68,5.34,6.79
		c0.01,1.89,0.02,3.78,0,5.68c-0.04,3.79-1.53,5.2-5.37,4.93c-3-0.21-5.98-0.7-8.97-0.84c-8.44-0.4-16.87-1.44-25.33-0.43
		c-9.65,1.16-16.5,6.18-20.51,15.02c-3.24,7.14-4.11,14.73-4.18,22.46c-0.03,3.67-0.01,7.35-0.01,11.02
		C856.54,243,856.62,243,856.7,243z"/>
	<path class="st3" d="M1405.11,415.68c0.3,6.62,0.28,13.2,0.99,19.71c0.46,4.26,1.55,8.56,3.08,12.57
		c3.96,10.42,11.93,16.05,22.93,16.45c8.54,0.31,17.11-0.46,25.67-0.82c2.33-0.1,4.65-0.49,6.98-0.64c3.67-0.23,4.92,0.9,4.98,4.48
		c0.05,2.67,0.07,5.34-0.02,8.01c-0.12,3.28-1.01,4.39-4.29,4.9c-4.83,0.75-9.69,1.48-14.56,1.86c-8.65,0.68-17.32,1.41-25.97-0.09
		c-18.69-3.25-30.57-14.36-36.85-31.91c-2.5-6.98-3.63-14.26-3.71-21.61c-0.11-10.67-0.13-21.37,0.53-32.02
		c0.7-11.3,4.27-21.79,11.37-30.84c7.6-9.69,17.66-15.14,29.77-16.68c13.16-1.67,26.21-0.31,39.17,2.12
		c3.89,0.73,4.5,1.64,4.56,5.69c0.04,2.45,0.05,4.9-0.01,7.34c-0.08,2.98-1.04,3.98-4.03,4.1c-1.55,0.06-3.11-0.13-4.67-0.21
		c-8.78-0.42-17.55-0.94-26.33-1.2c-2.74-0.08-5.57,0.31-8.25,0.95c-6.97,1.65-12.19,5.75-15.66,12.03
		c-2.73,4.94-4.28,10.3-4.73,15.87C1405.54,402.38,1405.41,409.06,1405.11,415.68z"/>
	<path class="st3" d="M1334.34,243.05c0.33-7,0.44-14.01,1.05-20.98c0.66-7.48,2.74-14.64,6.26-21.31
		c7.78-14.72,20.09-23.02,36.56-24.59c12.46-1.19,24.91-0.22,37.19,2.36c4.2,0.88,4.69,1.59,4.73,5.88c0.02,2.45,0.05,4.9-0.01,7.34
		c-0.07,2.48-0.85,3.43-3.25,3.86c-0.96,0.18-1.99,0.11-2.98,0.05c-9.11-0.53-18.21-1.17-27.32-1.57c-2.75-0.12-5.58,0.22-8.29,0.74
		c-8.6,1.66-14.64,6.67-18.26,14.61c-2.62,5.75-3.9,11.87-4.04,18.12c-0.22,10.23-0.25,20.48,0.02,30.71
		c0.11,4.18,0.89,8.42,1.95,12.48c3.65,13.91,12.65,21.12,27.02,21.15c8.99,0.02,17.99-0.89,26.99-1.38
		c1.55-0.08,3.12-0.31,4.66-0.22c2.35,0.15,3.39,1.25,3.47,3.62c0.09,2.89,0.08,5.79,0.01,8.68c-0.08,3.35-0.85,4.38-4.16,4.98
		c-11.2,2.04-22.52,3.06-33.89,2.49c-4.62-0.24-9.35-0.96-13.76-2.33c-15.73-4.87-25.22-16.04-30.27-31.31
		c-2.39-7.24-3.31-14.74-3.38-22.34c-0.03-3.67-0.01-7.35-0.01-11.02C1334.54,243.06,1334.44,243.05,1334.34,243.05z"/>
	<path class="st3" d="M1635.21,415.7c0,19.35,0,38.7,0,58.06c0,1,0.06,2.01-0.04,3c-0.27,2.62-1.94,4.33-4.55,4.41
		c-3.89,0.11-7.79,0.1-11.68,0.01c-2.83-0.07-4.46-1.72-4.75-4.57c-0.09-0.88-0.04-1.78-0.04-2.67c0-38.82,0-77.63,0-116.45
		c0-0.78-0.04-1.56,0.02-2.34c0.23-3.22,1.87-4.85,5.09-4.91c3.67-0.07,7.34-0.08,11.01,0.01c3.03,0.07,4.7,1.73,4.92,4.72
		c0.07,0.89,0.02,1.78,0.02,2.67C1635.21,376.99,1635.21,396.35,1635.21,415.7z"/>
</g>
<g>
	<path d="M612.6,298.01l-63.1-59.91l22.97-83.93l-87.28-23.89l-22.3-87.69l-94.11,23.93L298.36-0.35l-59.91,63.1l-83.93-22.97
		l-23.88,87.28l-87.7,22.3l23.93,94.11L0,313.9l63.1,59.91l-22.97,83.93l87.28,23.88l22.3,87.7l94.11-23.93l70.42,66.86l59.91-63.1
		l83.93,22.97l23.88-87.28l87.7-22.3l-23.93-94.11L612.6,298.01z M456.16,458.56l-20.38,74.45l-71.6-19.59l-51.11,53.83L253,510.21
		l-80.28,20.41l-19.02-74.81l-74.45-20.37l19.59-71.6L45,312.73l57.04-60.08l-20.41-80.28l74.81-19.02l20.38-74.45l71.6,19.59
		l51.11-53.83l60.08,57.04l80.28-20.41l19.02,74.81l74.45,20.38l-19.59,71.6l53.83,51.11l-57.04,60.08l20.41,80.28L456.16,458.56z"
		/>
</g>
<g>
	<g>
		<path class="st1" d="M539.12,238.63l-60.27-33.23l0.8-68.82l-71.57-0.83l-34.6-62.65l-67.24,37.13l-67.26-37.08l-33.23,60.27
			l-68.82-0.8l-0.83,71.57l-62.65,34.6l37.13,67.24l-37.09,67.26l60.27,33.23l-0.8,68.82l71.57,0.83l34.6,62.66l67.24-37.13
			l67.26,37.09l33.23-60.27l68.82,0.8l0.83-71.57l62.66-34.6l-37.13-67.24L539.12,238.63z M451.5,392.78l-0.71,61.05l-58.71-0.68
			l-28.35,51.42l-57.38-31.64L249,504.6l-29.52-53.45l-61.05-0.7l0.68-58.71l-51.41-28.35l31.64-57.38l-31.67-57.36l53.45-29.52
			l0.71-61.05l58.71,0.68l28.35-51.41l57.38,31.64l57.36-31.67l29.52,53.45l61.05,0.71l-0.68,58.71l51.41,28.35l-31.64,57.38
			l31.67,57.36L451.5,392.78z"/>
	</g>
</g>
<g>
	<g>
		<path class="st2" d="M612.6,298.01l-63.1-59.91l22.97-83.93l-87.28-23.89l-22.3-87.69l-94.11,23.93L298.36-0.35l-59.91,63.1
			l-83.93-22.97l-23.88,87.28l-87.7,22.3l23.93,94.11L0,313.9l63.1,59.91l-22.97,83.93l87.28,23.88l22.3,87.7l94.11-23.93
			l70.42,66.86l59.91-63.1l83.93,22.97l23.88-87.28l87.7-22.3l-23.93-94.11L612.6,298.01z M456.16,458.56l-20.38,74.45l-71.6-19.59
			l-51.11,53.83L253,510.21l-80.28,20.41l-19.02-74.81l-74.45-20.37l19.59-71.6L45,312.73l57.04-60.08l-20.41-80.28l74.81-19.02
			l20.38-74.45l71.6,19.59l51.11-53.83l60.08,57.04l80.28-20.41l19.02,74.81l74.45,20.38l-19.59,71.6l53.83,51.11l-57.04,60.08
			l20.41,80.28L456.16,458.56z"/>
	</g>
</g>
</svg>
